# xmcd CD database file
#
# Track frame offsets:
#	150
#	12831
#	25805
#	38171
#	52417
#	65676
#	78793
#	93750
#	107114
#	121002
#	133166
#	146952
#	158323
#	170971
#	180324
#	192698
#	205279
#	217581
#	229021
#	241842
#
# Disc length: 3410 seconds
#
# Revision: 1
# Processed by: cddbd v1.5.2PL0 Copyright (c) Steve Scherf et al.
# Submitted via: CDex 1.70beta2
#
DISCID=100d5014
DTITLE=Jimmy Rogers - Blues Greats
DYEAR=2011
DGENRE=Blues
TTITLE0=That's All Right
TTITLE1=Luedella
TTITLE2=Goin' Away Babay
TTITLE3=Today, Today Blues
TTITLE4=The World's In A Tangle
TTITLE5=She Loves Another Man
TTITLE6=Money, Marbles and Chalk
TTITLE7=Left Me With A Broken Heart
TTITLE8=Blues All Day Long (Leave Me Alone)
TTITLE9=Chicago Bound
TTITLE10=Sloppy Drunk
TTITLE11=You're The One
TTITLE12=Walking By Myself
TTITLE13=If It Ain't Me
TTITLE14=One Kiss
TTITLE15=I Can't Believe
TTITLE16=What Have I Done?
TTITLE17=Trace Of You
TTITLE18=Rock This House
TTITLE19=My Last Meal
EXTD=YEAR: 2011
EXTT0=
EXTT1=
EXTT2=
EXTT3=
EXTT4=
EXTT5=
EXTT6=
EXTT7=
EXTT8=
EXTT9=
EXTT10=
EXTT11=
EXTT12=
EXTT13=
EXTT14=
EXTT15=
EXTT16=
EXTT17=
EXTT18=
EXTT19=
PLAYORDER=
